<?xml version="1.0" standalone="no"?>
<!DOCTYPE svg PUBLIC "-//W3C//DTD SVG 20010904//EN"
 "http://www.w3.org/TR/2001/REC-SVG-20010904/DTD/svg10.dtd">
<svg version="1.0" xmlns="http://www.w3.org/2000/svg"
 width="5000.000000pt" height="5000.000000pt" viewBox="0 0 5000.000000 5000.000000"
 preserveAspectRatio="xMidYMid meet">

<g transform="translate(0.000000,5000.000000) scale(0.100000,-0.100000)"
fill="#000000" stroke="none">
<path d="M18666 36659 c-748 -62 -1402 -556 -1673 -1263 -91 -239 -127 -464
-120 -746 6 -243 33 -394 108 -607 215 -610 738 -1086 1364 -1242 1061 -266
2123 369 2390 1428 46 183 58 306 52 531 -4 167 -10 227 -31 327 -37 175 -87
319 -165 478 -111 226 -218 372 -402 551 -331 321 -743 505 -1214 544 -141 11
-164 11 -309 -1z"/>
<path d="M26930 36663 c-310 -19 -641 -126 -914 -295 -188 -116 -413 -323
-531 -487 -33 -46 -103 -136 -155 -200 -855 -1039 -5482 -6739 -7603 -9366
-169 -209 -339 -416 -377 -460 -229 -259 -387 -591 -457 -960 -24 -127 -29
-446 -9 -589 42 -295 145 -571 306 -816 85 -129 159 -217 281 -335 337 -325
740 -505 1223 -546 481 -40 1007 129 1385 445 110 92 247 238 332 352 40 54
125 162 189 239 536 648 5483 6742 7553 9305 180 223 359 441 398 485 359 409
532 1019 443 1567 -69 426 -255 791 -559 1093 -330 329 -754 523 -1230 564
-116 10 -159 11 -275 4z"/>
<path d="M35106 36659 c-1208 -114 -2027 -1269 -1731 -2441 189 -743 796
-1308 1558 -1449 144 -26 405 -36 547 -20 851 97 1530 704 1714 1533 38 172
49 302 43 488 -6 188 -30 333 -82 504 -219 721 -841 1259 -1588 1370 -127 19
-343 26 -461 15z"/>
<path d="M31320 32085 c-353 -48 -680 -187 -965 -410 -110 -86 -276 -259 -371
-387 -43 -58 -171 -217 -284 -354 -591 -715 -3237 -3977 -3849 -4744 -112
-140 -227 -280 -255 -310 -333 -356 -523 -878 -503 -1385 29 -731 447 -1373
1102 -1690 197 -96 370 -148 595 -181 143 -20 467 -15 605 10 406 74 767 265
1055 556 77 79 109 117 242 291 24 31 255 315 513 630 855 1042 3330 4095
3680 4539 32 41 94 114 136 162 433 484 601 1097 474 1723 -168 828 -860 1457
-1710 1555 -120 13 -348 11 -465 -5z"/>
</g>
</svg>
